inDegrees=no
num_controls=7
num_derivatives=13
num_iterations=166
num_multipliers=7
num_parameters=0
num_slacks=7
num_states=26
objective=5.705898
objective_accelerations=0.359342
objective_balance=0.020922
objective_effort=0.385871
objective_height=4.844614
objective_ligament=0.095149
solver_duration=1413.267392
status=Solve_Succeeded
success=true
DataType=double
version=3
OpenSimVersion=4.4-2022-07-23-0e9fedc
endheader
time	/jointset/ground_pelvis/pelvis_tilt/value	/jointset/ground_pelvis/pelvis_tx/value	/jointset/ground_pelvis/pelvis_ty/value	/jointset/hip_r/hip_flexion_r/value	/jointset/hip_r/hip_adduction_r/value	/jointset/hip_r/hip_rotation_r/value	/jointset/back/lumbar_extension/value	/jointset/patellofemoral_r/patellar_flexion_r/value	/jointset/knee_r/knee_flexion_r/value	/jointset/knee_r/knee_adduction_r/value	/jointset/knee_r/knee_rotation_r/value	/jointset/ankle_r/ankle_angle_r/value	/jointset/subtalar_r/subtalar_angle_r/value	/jointset/ground_pelvis/pelvis_tilt/speed	/jointset/ground_pelvis/pelvis_tx/speed	/jointset/ground_pelvis/pelvis_ty/speed	/jointset/hip_r/hip_flexion_r/speed	/jointset/hip_r/hip_adduction_r/speed	/jointset/hip_r/hip_rotation_r/speed	/jointset/back/lumbar_extension/speed	/jointset/patellofemoral_r/patellar_flexion_r/speed	/jointset/knee_r/knee_flexion_r/speed	/jointset/knee_r/knee_adduction_r/speed	/jointset/knee_r/knee_rotation_r/speed	/jointset/ankle_r/ankle_angle_r/speed	/jointset/subtalar_r/subtalar_angle_r/speed	/forceset/tau_hip_flexion_r	/forceset/tau_hip_adduction_r	/forceset/tau_hip_rotation_r	/forceset/tau_knee_flexion_r	/forceset/tau_ankle_angle_r	/forceset/tau_subtalar_angle_r	/forceset/tau_lumbar_extension	lambda_cid13_p0	lambda_cid14_p0	lambda_cid14_p1	lambda_cid14_p2	lambda_cid14_p3	lambda_cid14_p4	lambda_cid14_p5	/jointset/ground_pelvis/pelvis_tilt/accel	/jointset/ground_pelvis/pelvis_tx/accel	/jointset/ground_pelvis/pelvis_ty/accel	/jointset/hip_r/hip_flexion_r/accel	/jointset/hip_r/hip_adduction_r/accel	/jointset/hip_r/hip_rotation_r/accel	/jointset/back/lumbar_extension/accel	/jointset/patellofemoral_r/patellar_flexion_r/accel	/jointset/knee_r/knee_flexion_r/accel	/jointset/knee_r/knee_adduction_r/accel	/jointset/knee_r/knee_rotation_r/accel	/jointset/ankle_r/ankle_angle_r/accel	/jointset/subtalar_r/subtalar_angle_r/accel	gamma_cid13_p0	gamma_cid14_p0	gamma_cid14_p1	gamma_cid14_p2	gamma_cid14_p3	gamma_cid14_p4	gamma_cid14_p5
0	-0.005619045655696709	0.1308602575547017	0.9335825408678242	0.1934208783645156	-0.2258661181274485	-0.2440821302209795	-0.2903791543005566	0.2311793314021503	0.2311793314021609	0.1271808475672014	0.1743112640770976	0.08934340440958972	0.06677882020036766	0	0	0	0	0	0	0	0	0	0	0	0	0	0.1147534531585794	-0.06186047162973768	0.0009957163801728036	-0.2474400910855748	0.1086054389918129	-0.07918497005316177	-0.03323341057489998	-29.95436813555325	-12.10899431370968	-31.18085386270143	-0.694414515136964	11.31471772295307	-623.0677445236524	51.0467799399522	-2.497040824547395	-2.067010228366883	-0.6773077399672356	9.131099468594941	0.1631472516534081	1.64806270274863	-6.380460867061426	6.851121448016294	6.851121448016168	-2.138161414600661	0.07241870307761017	0.733004561399398	0.3925688348990511	2.439953466730304e-08	1.981553963443113e-08	-1.468872988800862e-07	1.166997508794596e-07	3.561507854585318e-09	9.209117754054263e-08	-1.184570348538692e-07
0.01	-0.005738410135706656	0.1307580815427489	0.933549623588969	0.1938665134191103	-0.2258568365473453	-0.24399977409717	-0.2906986798500996	0.2315150544129198	0.2315150544129446	0.1270734486450881	0.1743124954223534	0.08937896344310456	0.06679952199543449	-0.02377009410801243	-0.02034042510819693	-0.006562896454820199	0.08871522858868289	0.001820689391669918	0.01639804872884582	-0.06349957050835121	0.06683092743604419	0.06683092743604874	-0.02131531235994805	0.0002513382111636878	0.007066162445353283	0.00408408965917371	0.1099949624748753	-0.06820943107984247	0.001448848565265652	-0.2424616845454172	0.101107663181728	-0.07136906012535527	-0.02908210003072729	-29.95763695890049	-14.11819310606157	-27.93928754975303	-1.438415402711488	11.64842284596437	-624.2048276603949	57.30500041885833	-2.301573666196225	-2.003341347129339	-0.6426782825986153	8.679968347555871	0.1861803369080463	1.624723803187965	-6.273874233068227	6.552022303451368	6.552022303451818	-2.103559254411198	0.002275268643099818	0.6865795243356495	0.407879138496871	2.999001719161599e-08	1.718663035469976e-08	-1.629144667473992e-07	1.272321552936791e-07	9.229185955354554e-09	3.255128604156173e-08	-1.245440844433617e-07
0.02	-0.006092391549237473	0.1304553447406976	0.9334516978086951	0.1951869475182977	-0.225830417962531	-0.2437556279170121	-0.2916410349227903	0.2325096754804755	0.2325096754804782	0.1267578279777236	0.1743163969274096	0.08948381558872594	0.06685937470850682	-0.04692338670678529	-0.04011215801970255	-0.01300170028374222	0.1749598089194084	0.003427400942740981	0.03235801126712392	-0.1245659046305671	0.1317796113542033	0.1317796113542032	-0.04164434902866032	0.0005340319626071485	0.01385862242000012	0.007830183601158381	0.1052364717910686	-0.07455839053002833	0.001901980750283439	-0.237483278005287	0.09360988737160979	-0.06355315019765553	-0.02493078948661206	-29.96720306438189	-16.07386017257529	-24.70029261698613	-2.168362341889113	12.08593886948598	-624.4354851628545	63.3586306973009	-2.373680522699639	-1.953271789028529	-0.6524892147876076	8.636969817003486	0.1203516835336501	1.560445464635114	-5.893813589834489	6.474672744439235	6.474672744437255	-1.940906276353527	0.07868981113352201	0.6782640672581964	0.32496969146128	3.558049971592894e-08	1.455772107496839e-08	-1.789416346147122e-07	1.377645597078987e-07	1.489686405612379e-08	-2.698860545741917e-08	-1.306311340328542e-07
0.03	-0.006675206009155154	0.1299579452356812	0.933289822688824	0.1973576082497915	-0.2257890493328281	-0.2433543880408379	-0.293181300439345	0.2341443317449542	0.234144331744961	0.1262440244287552	0.1743234730263659	0.08965537589514849	0.06695499295135787	-0.06954022720188424	-0.05925097334182314	-0.01936540943757393	0.2587348348590923	0.004821327249740296	0.04782049350006454	-0.183060264891137	0.1948250559677006	0.1948250559677087	-0.06096242253826196	0.0008607561294447023	0.02042955242936139	0.01125699627137615	0.1002588833852822	-0.07067841739967801	0.002199181780024848	-0.2335952788261307	0.09048718119583825	-0.0640137688595362	-0.02058291198140585	-29.98274975271287	-17.08059386337674	-25.06805066373813	-2.119509903428086	11.82261380083299	-624.7231706620591	61.71410143855467	-2.19079067228798	-1.87666795506348	-0.6271302660479661	8.182146348249848	0.1451574231391885	1.528757741779261	-5.763207176038604	6.170485345357632	6.170485345359971	-1.904184258476469	0.006626886777021864	0.642929496635003	0.3460548648065527	3.703577003847938e-08	9.793217024621134e-09	-1.705297532541877e-07	1.369874000247515e-07	1.909769100414363e-08	-8.690582955919307e-08	-1.228265611090578e-07
0.04	-0.007481209845882252	0.1292726612671918	0.9330645467773419	0.2003528947138228	-0.2257344925762876	-0.2428006017144913	-0.2952937015448781	0.2363996434606484	0.2363996434606518	0.1255416548705349	0.1743332090005205	0.08989192990743997	0.06708378288291172	-0.09156126207193703	-0.07768905071432104	-0.02568185860590347	0.3398849554307374	0.00606502631099767	0.0628673012992443	-0.2389930224265343	0.2559107016033014	0.2559107016033247	-0.07935755085637981	0.001066006988988526	0.02685736359312058	0.01446452134177535	0.09528129497923599	-0.06679844426935527	0.002496382810019788	-0.2297072796471208	0.08736447502001414	-0.06447438752146864	-0.016235034476371	-30.00367274898801	-18.03887544847865	-25.43841650343471	-2.057572252741554	11.64866523108752	-624.1922379735856	59.88470132785527	-2.254519397690571	-1.813124199103917	-0.6430372176871787	8.111988743395717	0.09030623438527076	1.47731057788301	-5.381493044800082	6.082712948859895	6.082712948859323	-1.756317238056773	0.05439514967470339	0.6496402981378409	0.2811121714975867	3.8405778253777e-08	4.984680092405506e-09	-1.616139739714397e-07	1.359770534529988e-07	2.326827359849854e-08	-1.468308337146329e-07	-1.147355629788018e-07
0.05	-0.008504879434142734	0.128406407952253	0.9327761608343234	0.2041472591499362	-0.2256684377987297	-0.2420989923689045	-0.2979524963225842	0.2392563126069784	0.2392563126069871	0.1246602937921801	0.174345047358635	0.0901919284105855	0.06724329521054381	-0.1130789813550113	-0.09545264887446649	-0.03199941465742001	0.418573797579519	0.007122210210695998	0.07736652836359016	-0.2923657713692313	0.3151080720386298	0.3151080720386044	-0.09676175250654555	0.001294280493403004	0.03311078949231576	0.01740125815502419	0.08984197391835248	-0.06516268032540513	0.002849527441840973	-0.2257566078399157	0.08347307338154336	-0.06265316687068169	-0.01165127974759085	-30.02936365994974	-19.11968401490424	-24.80315515057119	-2.197169072048944	11.5043261841678	-623.7121546074031	60.09230611577278	-2.086340583588604	-1.741628427101891	-0.626757348251066	7.685215565565578	0.109864077219987	1.423050510504858	-5.25514155736623	5.790983054889945	5.790983054882934	-1.709548905149374	0.005963028964036462	0.6084657837058246	0.294442470228672	3.494872885654468e-08	1.702444252436276e-10	-1.241071163307091e-07	1.228853386018844e-07	2.373537351816333e-08	-1.91168847826973e-07	-9.081684228432296e-08
0.06	-0.009740914693216935	0.1273657884951863	0.932424470820917	0.2087160887305158	-0.2255925232602853	-0.2412550264047126	-0.3011330137373895	0.242695502250466	0.2426955022504654	0.1236094752420025	0.174358952367407	0.09055351558230205	0.06743107251310634	-0.1340343962370369	-0.112562279139895	-0.03834267268346454	0.4947779843261406	0.008036978488705705	0.0913386250197304	-0.3433375498464084	0.3724148010347811	0.3724148010347099	-0.1132490452228325	0.001479337123371324	0.03917509730732956	0.02011751632788123	0.08440265285732687	-0.06352691638144239	0.003202672073644643	-0.2218059360327581	0.07958167174306555	-0.06083194621988132	-0.007067525018928737	-30.0590233312891	-20.15696244593104	-24.16973851011402	-2.325658603789046	11.43341932547469	-622.5042195696102	60.13917020214692	-2.142058517481019	-1.682330620160465	-0.6481776125927802	7.615057662963697	0.06182311004755254	1.371884496241987	-4.901298951696193	5.704584661024432	5.704584661024443	-1.572935451281006	0.04575177478536496	0.6118166813016119	0.2370164434192423	3.128843492825847e-08	-4.644439609705458e-09	-8.539642381174756e-08	1.092849345600601e-07	2.404653732520959e-08	-2.348505676217088e-07	-6.623169116608744e-08
0.07000000000000001	-0.01118405652934492	0.1261573790751074	0.9320090857109777	0.2140349541336515	-0.2255083206295002	-0.2402742216635896	-0.3048109327193201	0.2466984766600783	0.2466984766600947	0.1223986708517421	0.1743748032504509	0.09097481538634375	0.0676447368295493	-0.1544975749423151	-0.1290053768802465	-0.04474545386785425	0.5685723455278996	0.008786407844520235	0.1047390174816628	-0.3918553895904436	0.4278601074681287	0.4278601074680634	-0.1287663422153598	0.001668556858543064	0.04505756824391443	0.02258808155315527	0.07863720379996822	-0.06128366829829982	0.003537153338340709	-0.2182780566834749	0.07644603716923241	-0.05929386717245611	-0.002253343652424498	-30.09186473633527	-20.97750677526127	-23.63966558140996	-2.416742085539966	11.12378425507859	-621.5153592090215	59.92869602083968	-1.983979992456091	-1.608160338433162	-0.638041555477715	7.198216741327981	0.07893699534066374	1.311641147430024	-4.768397943530147	5.416501407923491	5.416501407924293	-1.51930705194471	0.002185515349993099	0.572369822565082	0.247986913543836	2.485212238823694e-08	-1.014970654330351e-08	-3.355608207425826e-08	8.431958597425401e-08	2.297600327697545e-08	-2.720905261931718e-07	-3.175698159528915e-08
0.08	-0.0128289366415952	0.1247879664801329	0.9315293301523719	0.220079081427314	-0.2254171368757579	-0.2391619080925961	-0.3089623043902437	0.2512463036887222	0.2512463036887416	0.1210370574458552	0.1743918820192983	0.09145412140429658	0.06788228886853756	-0.1743820514638329	-0.1447629141190352	-0.05121676241672253	0.6398303624314848	0.009433203080018819	0.1176403909940575	-0.4380280876454071	0.4813853248388171	0.4813853248387576	-0.1434108483561391	0.001724914292379135	0.05077634008962591	0.02489506083692654	0.07287175474256566	-0.0590404202151428	0.003871634602934902	-0.2147501773341846	0.07331040259541008	-0.05775578812500889	0.002560837714032386	-30.12690525797107	-21.75964765421475	-23.11113619716109	-2.498135818173238	10.87191495415586	-619.8897363178932	59.58200353567437	-2.026318080729111	-1.545218519847863	-0.6618830854884957	7.10778880332894	0.0412962859843742	1.272080706334586	-4.432270613881936	5.320566848492513	5.320566848492512	-1.398377280931427	0.01917931451808609	0.5790768631269612	0.2042992551187008	1.823671187326476e-08	-1.569952721229827e-08	1.91313338063618e-08	5.862101515980392e-08	2.181632743162645e-08	-3.089148872663591e-07	3.355764004706682e-09
